<svg xmlns="http://www.w3.org/2000/svg" xmlns:svg="http://www.w3.org/2000/svg" id="svg30" width="24" height="24" version="1.1"><metadata id="metadata36"/><g id="g943"><path id="path2" d="m 2.5,7.4999999 h 19 V 21.5 h -19 z" style="fill:#e6e6e6;stroke:#6e97c4"/><path id="path4" d="m 2.5,2.4999999 h 19 v 5 h -19 z" style="fill:#bad9ec;stroke:#6e97c4"/><path id="path6" d="M 5,4.9999999 H 9" style="fill:none;stroke:#6e97c4;stroke-width:2"/><path id="path8" d="m 11,4.9999999 h 7.999999" style="fill:none;stroke:#6e97c4;stroke-width:2"/><g id="g28" transform="translate(0,-9.2)" style="stroke:#6e97c4"><path id="path16" d="M 5,18.7 H 9" style="fill:none"/><path id="path18" d="m 11,18.7 h 7.999999" style="fill:none"/><path id="path20" d="M 5,21.7 H 9" style="fill:none"/><path id="path22" d="m 11,21.7 h 7.999999" style="fill:none"/><path id="path24" d="M 5,24.7 H 9" style="fill:none"/><path id="path26" d="m 11,24.7 h 7.999999" style="fill:none"/></g><g style="stroke-linejoin:round;stroke-dashoffset:.5;enable-background:new" id="g8092" transform="matrix(0.58290926,0.33654275,-0.33654275,0.58290926,12.638737,4.6294758)"><path style="fill:#505050;stroke:#505050;stroke-width:.75;stroke-linecap:round" id="path8094" d="m 8.0961023,18.028419 5.9999997,0 -3.12491,6.990956 z"/><path style="fill:#fce94f;stroke:#8b7617;stroke-width:.75;stroke-linecap:round" id="path8096" d="m 8.0961004,1.0284199 6.0000006,-1e-6 10e-7,17.0000001 -5.9999997,0 z"/><path style="opacity:.5;fill:none;stroke:#fcffff;stroke-width:2" id="path8098" d="m 10.596101,2.0284194 10e-7,14.9999996"/><path style="opacity:.25;fill-opacity:.58823494;stroke:#000;stroke-width:2" id="path8100" d="m 12.596101,2.0284192 2e-6,14.9999998"/><path style="opacity:.5;fill:#fce94f;stroke:#8b7617;stroke-width:.75;stroke-linecap:round" id="path8102" d="m 12.096101,2.0284193 10e-7,15.9999997"/><path style="fill:#969696;stroke:#969696;stroke-width:.5;stroke-linecap:square" id="path8104" d="m 11.463292,23.228968 1.996957,-4.943779 -1.996957,-10e-7 z"/><path style="opacity:.5;fill:#fce94f;stroke:#8b7617;stroke-width:.75;stroke-linecap:round" id="path8106" d="m 9.5961007,2.0284198 1.5e-6,15.9999982"/><g style="fill:#e6e6e6;stroke-width:.5" id="g8108"><path style="stroke:#969696;stroke-linecap:round" id="path8110" d="m 7.8653316,-0.08727704 6.4615374,0 0,2.17913134 -6.4615374,0 z"/><path style="stroke:#e6e6e6;stroke-linecap:square" id="path8112" d="m 10.728912,23.38728 -1.9969556,-5.102091 1.9969556,0 z"/></g></g></g></svg>